<svg xmlns="http://www.w3.org/2000/svg" viewBox="0 0 60 60"><defs><style>.cls-1{fill:#231f20;}</style></defs><title>basket</title><g id="katman_2" data-name="katman 2"><g id="Layer_1" data-name="Layer 1"><path class="cls-1" d="M48,48a6,6,0,1,0,6,6A6,6,0,0,0,48,48ZM0,0V6H6L16.8,28.77l-4.05,7.35A5.8,5.8,0,0,0,12,39a6,6,0,0,0,6,6H54V39H19.26a.74.74,0,0,1-.75-.75l.09-.36L21.3,33H43.65a6,6,0,0,0,5.25-3.09L59.64,10.44A2.93,2.93,0,0,0,60,9a3,3,0,0,0-3-3H12.63L9.81,0ZM18,48a6,6,0,1,0,6,6A6,6,0,0,0,18,48Z"/></g></g></svg>